<?xml version="1.0" encoding="utf-8"?>
<!-- Generator: Adobe Illustrator 21.0.2, SVG Export Plug-In . SVG Version: 6.00 Build 0)  -->
<svg version="1.1" id="Layer_1" xmlns="http://www.w3.org/2000/svg" xmlns:xlink="http://www.w3.org/1999/xlink" x="0px" y="0px"
	 viewBox="0 0 230.8 216.3" style="enable-background:new 0 0 230.8 216.3;" xml:space="preserve">
<style type="text/css">
	.st0{fill:url(#SVGID_1_);}
	.st1{fill:url(#SVGID_2_);}
	.st2{fill:url(#SVGID_3_);}
	.st3{fill:url(#SVGID_4_);}
	.st4{fill:url(#SVGID_5_);}
	.st5{fill:url(#SVGID_6_);}
	.st6{fill:url(#SVGID_7_);}
</style>
<g>
<linearGradient id="SVGID_1_" gradientUnits="userSpaceOnUse" x1="94.1571" y1="156.2633" x2="182.5009" y2="156.2633" gradientTransform="matrix(1 0 0 -1 0 216.8566)">
	<stop  offset="0" style="stop-color:#D90F08"/>
	<stop  offset="0.4609" style="stop-color:#A00203"/>
	<stop  offset="1" style="stop-color:#860016"/>
</linearGradient>
<path class="st0" d="M117.4,19.9l65.1,23.7c0,0-9,38.4-13.6,57.7c-24.4-15.4-50.8-31.7-74.7-46.8C94.3,54.2,117.4,19.9,117.4,19.9z"/>

</g>
<g>
	<linearGradient id="SVGID_2_" gradientUnits="userSpaceOnUse" x1="167.8895" y1="119.1433" x2="214.2509" y2="119.1433" gradientTransform="matrix(1 0 0 -1 0 216.8566)">
	<stop  offset="0" style="stop-color:#D90F08"/>
	<stop  offset="0.4609" style="stop-color:#A00203"/>
	<stop  offset="1" style="stop-color:#860016"/>
	</linearGradient>
	<path class="st1" d="M184,46.5c10.1,34.2,20.1,67.9,30.3,102.3c-1.5-1-2.4-1.4-3.2-2c-13.7-10.2-27.3-20.4-41-30.5
		c-1.8-1.4-2.6-2.6-2-5c5.1-21,10.1-42,15.1-63C183.2,47.9,183.5,47.6,184,46.5z"/>
</g>
<g>
<linearGradient id="SVGID_3_" gradientUnits="userSpaceOnUse" x1="65.5809" y1="163.5583" x2="157.4809" y2="163.5583" gradientTransform="matrix(1 0 0 -1 0 216.8566)">
<stop  offset="0" style="stop-color:#D90F08"/>
<stop  offset="0.4609" style="stop-color:#A00203"/>
<stop  offset="1" style="stop-color:#860016"/>
</linearGradient>
<path class="st2" d="M65.6,10.1c17.3,3.2,33.5,6.2,50.3,9.3c-8.1,12.1-15.8,23.6-23.8,35.4c22,13.9,43.7,27.6,65.4,41.3
	c-0.1,0.2-0.1,0.3-0.2,0.5c-0.7-0.2-1.5-0.3-2.2-0.6c-20.2-8.2-40.3-16.4-60.4-24.8c-1.9-0.8-3.8-2.7-4.6-4.5
	c-5.5-12.5-10.6-25.1-16-37.7C71.6,23,68.8,17.1,65.6,10.1z"/>
</g>
<g>
<linearGradient id="SVGID_4_" gradientUnits="userSpaceOnUse" x1="46.3709" y1="196.7583" x2="72.2209" y2="196.7583" gradientTransform="matrix(1 0 0 -1 0 216.8566)">
<stop  offset="0" style="stop-color:#D90F08"/>
<stop  offset="0.4609" style="stop-color:#A00203"/>
<stop  offset="1" style="stop-color:#860016"/>
</linearGradient>
<path class="st3" d="M72.2,29.8c-8.9,0-16.8,0-25.8,0c6.2-6.7,11.7-12.8,17.8-19.5C66.9,17,69.4,23,72.2,29.8z"/>
</g>
<g id="left-wing" data-name="Group 0" transform="translate(0 0)">
	<g id="part-1" data-name="Group 1" transform="translate(0 0)">
		
			<linearGradient id="SVGID_5_" gradientUnits="userSpaceOnUse" x1="127.4998" y1="238.5627" x2="227.4998" y2="238.5627" gradientTransform="matrix(-1 3.621320e-03 3.621320e-03 1 231.1202 -75.471)">
			<stop  offset="0" style="stop-color:#D90F08"/>
			<stop  offset="0.4609" style="stop-color:#A00203"/>
			<stop  offset="1" style="stop-color:#860016"/>
		</linearGradient>
		<path class="st4" d="M78.3,113.2c8.9,29.8,17.5,58.3,26.3,87.6c-33.1,4.5-66,9-100,13.6C29.3,180.5,53.4,147.4,78.3,113.2z"/>
	</g>
	<g id="part-2" data-name="Group 2" transform="translate(0 0)">
		<linearGradient id="SVGID_6_" gradientUnits="userSpaceOnUse" x1="62.8798" y1="227.0827" x2="150.4998" y2="227.0827" gradientTransform="matrix(-1 3.621320e-03 3.621320e-03 1 231.1202 -75.471)">
		<stop  offset="0" style="stop-color:#D90F08"/>
		<stop  offset="0.4609" style="stop-color:#A00203"/>
		<stop  offset="1" style="stop-color:#860016"/>
	</linearGradient>
	<path class="st5" d="M168.9,104.9c-21.2,31.7-41.8,62.5-62.9,94.1c-8.3-27.7-16.4-54.7-24.6-82.2
		C110.4,112.9,139.2,109,168.9,104.9z"/>
	</g>
	<g id="part-3" data-name="Group 3" transform="translate(0 0)">
	
		<linearGradient id="SVGID_7_" gradientUnits="userSpaceOnUse" x1="63.8739" y1="160.1523" x2="150.3998" y2="160.1523" gradientTransform="matrix(-1 3.621320e-03 3.621320e-03 1 231.1202 -75.471)">
		<stop  offset="0" style="stop-color:#D90F08"/>
		<stop  offset="0.4609" style="stop-color:#A00203"/>
		<stop  offset="1" style="stop-color:#860016"/>
	</linearGradient>
	<path class="st6" d="M166.9,103.4c-28.1,3.8-56.2,7.6-85.5,11.6c4.6-19.7,7.3-40.3,11.7-59.7c24.4,15.3,50.8,31.9,74.7,46.9
		C167.8,102.5,167,103.1,166.9,103.4z"/>
	</g>
</g>
</svg>
