<?xml version="1.0" encoding="utf-8"?>
<!-- Generator: Adobe Illustrator 24.3.0, SVG Export Plug-In . SVG Version: 6.00 Build 0)  -->
<svg version="1.1" id="Layer_1" xmlns="http://www.w3.org/2000/svg" xmlns:xlink="http://www.w3.org/1999/xlink" x="0px" y="0px"
	 viewBox="0 0 390 342" style="enable-background:new 0 0 390 342;" xml:space="preserve">
<style type="text/css">
	.st0{fill:url(#SVGID_1_);}
	.st1{fill:url(#SVGID_2_);}
	.st2{fill:url(#SVGID_3_);}
	.st3{fill:url(#SVGID_4_);}
	.st4{fill:url(#SVGID_5_);}
	.st5{fill:url(#SVGID_6_);}
	.st6{fill:url(#SVGID_7_);}
</style>
<g>
	<g>
		<linearGradient id="SVGID_1_" gradientUnits="userSpaceOnUse" x1="200.5051" y1="119.5958" x2="300.5066" y2="119.5958">
			<stop  offset="0" style="stop-color:#D90F08"/>
			<stop  offset="0.4609" style="stop-color:#A00203"/>
			<stop  offset="1" style="stop-color:#860016"/>
		</linearGradient>
		<path class="st0" d="M226.48,170.09c-8.82-29.8-17.29-58.4-25.97-87.74c33.14-4.39,66-8.74,100-13.25
		C275.71,102.93,251.5,135.95,226.48,170.09z"/>
	</g>
	<linearGradient id="SVGID_2_" gradientUnits="userSpaceOnUse" x1="135.8928" y1="130.487" x2="223.5121" y2="130.487">
		<stop  offset="0" style="stop-color:#D90F08"/>
		<stop  offset="0.4609" style="stop-color:#A00203"/>
		<stop  offset="1" style="stop-color:#860016"/>
	</linearGradient>
	<path class="st1" d="M135.89,177.41c21.34-31.66,42.04-62.35,63.27-93.84c8.22,27.77,16.2,54.75,24.35,82.28
		C194.4,169.69,165.64,173.48,135.89,177.41z"/>
	<linearGradient id="SVGID_3_" gradientUnits="userSpaceOnUse" x1="137.5781" y1="196.4658" x2="223.4087" y2="196.4658">
		<stop  offset="0" style="stop-color:#D90F08"/>
		<stop  offset="0.4609" style="stop-color:#A00203"/>
		<stop  offset="1" style="stop-color:#860016"/>
	</linearGradient>
	<path class="st2" d="M137.88,178.91c28.12-3.72,56.24-7.44,85.53-11.31c-4.64,19.7-9.04,38.37-13.6,57.72
		c-24.38-15.38-48.31-30.48-72.23-45.57C137.68,179.47,137.78,179.19,137.88,178.91z"/>
	<linearGradient id="SVGID_4_" gradientUnits="userSpaceOnUse" x1="208.798" y1="221.7267" x2="255.1593" y2="221.7267">
		<stop  offset="0" style="stop-color:#D90F08"/>
		<stop  offset="0.4609" style="stop-color:#A00203"/>
		<stop  offset="1" style="stop-color:#860016"/>
	</linearGradient>
	<path class="st3" d="M224.88,170.56c10.13,34.23,20.08,67.87,30.28,102.34c-1.53-0.95-2.39-1.41-3.16-1.98
		c-13.66-10.18-27.28-20.41-40.97-30.54c-1.83-1.36-2.63-2.57-2.04-5.01c5.1-20.99,10.05-42.02,15.05-63.03
		C224.13,171.96,224.37,171.62,224.88,170.56z"/>
	<linearGradient id="SVGID_5_" gradientUnits="userSpaceOnUse" x1="106.4881" y1="177.3161" x2="198.3833" y2="177.3161">
		<stop  offset="0" style="stop-color:#D90F08"/>
		<stop  offset="0.4609" style="stop-color:#A00203"/>
		<stop  offset="1" style="stop-color:#860016"/>
	</linearGradient>
	<path class="st4" d="M106.49,134.1c17.35,3.21,33.5,6.2,50.34,9.31c-8.1,12.05-15.83,23.55-23.8,35.4
		c21.98,13.87,43.67,27.56,65.36,41.25c-0.06,0.16-0.12,0.31-0.18,0.47c-0.72-0.2-1.47-0.32-2.16-0.6
		c-20.16-8.22-40.33-16.4-60.41-24.8c-1.86-0.78-3.76-2.67-4.57-4.52c-5.49-12.5-10.63-25.15-16-37.7
		C112.52,146.97,109.71,141.14,106.49,134.1z"/>
	<linearGradient id="SVGID_6_" gradientUnits="userSpaceOnUse" x1="243.1801" y1="117.0052" x2="302.7191" y2="117.0052">
		<stop  offset="0" style="stop-color:#D90F08"/>
		<stop  offset="0.4609" style="stop-color:#A00203"/>
		<stop  offset="1" style="stop-color:#860016"/>
	</linearGradient>
	<path class="st5" d="M243.18,150.1c5.73-7.82,11.45-15.65,17.18-23.47c8.47-11.56,17.09-23.01,25.34-34.72
		c2.82-4,5.85-6.85,10.9-7.19c1.71-0.11,3.4-0.73,6.13-1.34c-20.08,22.9-39.53,45.08-58.98,67.26
		C243.55,150.46,243.37,150.28,243.18,150.1z"/>
	<linearGradient id="SVGID_7_" gradientUnits="userSpaceOnUse" x1="87.2809" y1="144.1143" x2="113.1321" y2="144.1143">
		<stop  offset="0" style="stop-color:#D90F08"/>
		<stop  offset="0.4609" style="stop-color:#A00203"/>
		<stop  offset="1" style="stop-color:#860016"/>
	</linearGradient>
	<path class="st6" d="M113.13,153.86c-8.94,0-16.85,0-25.85,0c6.15-6.74,11.69-12.82,17.78-19.49
		C107.83,141.04,110.31,147.05,113.13,153.86z"/>
</g>
</svg>
