<?xml version="1.0" encoding="UTF-8"?>
<svg enable-background="new 0 0 317 305.2" version="1.1" viewBox="0 0 317 305.2" xml:space="preserve" xmlns="http://www.w3.org/2000/svg">
<style type="text/css">
	.st0{fill:url(#s);}
	.st1{fill:url(#h);}
	.st2{fill:url(#g);}
	.st3{fill:url(#f);}
	.st4{fill:url(#e);}
	.st5{fill:url(#d);}
	.st6{fill:url(#c);}
	.st7{fill:url(#b);}
	.st8{fill:url(#a);}
	.st9{fill:url(#ac);}
	.st10{fill:url(#ab);}
	.st11{fill:url(#aa);}
	.st12{fill:url(#z);}
	.st13{fill:url(#y);}
	.st14{fill:url(#x);}
	.st15{fill:url(#w);}
	.st16{fill:url(#v);}
	.st17{fill:url(#u);}
	.st18{fill:url(#t);}
	.st19{fill:url(#r);}
	.st20{fill:url(#q);}
	.st21{fill:url(#p);}
	.st22{fill:url(#o);}
	.st23{fill:url(#n);}
	.st24{fill:url(#m);}
	.st25{fill:url(#l);}
	.st26{fill:url(#k);}
	.st27{fill:url(#j);}
	.st28{fill:url(#i);}
</style>
<title>logo-svg</title>
			<linearGradient id="s" x1="26.604" x2="317.85" y1="21.07" y2="334.23" gradientTransform="matrix(1 0 0 -1 0 308.16)" gradientUnits="userSpaceOnUse">
			<stop stop-color="#BF0077" offset="0"/>
			<stop stop-color="#E01E42" offset="1"/>
		</linearGradient>
		<polygon class="st0" points="189.5 100.3 183.7 100.3 166.5 100.3 178.6 112.4 178.6 112.4 182.7 116.5 182.7 116.5 201.6 135.4 201.6 118.2 199.9 116.5 195.8 112.4 201.6 112.4 201.6 112.4 201.6 112.4 201.6 100.3"/>
			<linearGradient id="h" x1="47.343" x2="338.6" y1="1.7716" y2="314.93" gradientTransform="matrix(1 0 0 -1 0 308.16)" gradientUnits="userSpaceOnUse">
			<stop stop-color="#BF0077" offset="0"/>
			<stop stop-color="#E01E42" offset="1"/>
		</linearGradient>
		<path class="st1" d="m259.3 114.4c1.8-3.7 3.1-7.6 3.7-11.7-6.1-1.6-12.4-2.4-18.8-2.4h-38.6v16.2h0.1l12.1 12.1v-16.2h26.4c5.1 0 10.2 0.7 15.1 2z"/>
			<linearGradient id="g" x1="40.967" x2="332.23" y1="7.7077" y2="320.87" gradientTransform="matrix(1 0 0 -1 0 308.16)" gradientUnits="userSpaceOnUse">
			<stop stop-color="#BF0077" offset="0"/>
			<stop stop-color="#E01E42" offset="1"/>
		</linearGradient>
		<polygon class="st2" points="129.6 216.8 135.4 216.8 152.6 216.8 140.4 204.7 136.3 200.6 117.5 181.8 117.5 198.9 119.1 200.6 123.2 204.7 117.5 204.7 117.4 204.7 117.5 204.8 117.5 216.8"/>
			<linearGradient id="f" x1="93.996" x2="385.25" y1="-41.611" y2="271.55" gradientTransform="matrix(1 0 0 -1 0 308.16)" gradientUnits="userSpaceOnUse">
			<stop stop-color="#BF0077" offset="0"/>
			<stop stop-color="#E01E42" offset="1"/>
		</linearGradient>
		<path class="st3" d="m306.2 158.6c0-19.8-9-36.6-24-47-1.2-0.8-2.4-1.6-3.6-2.3-3.7-2.2-7.6-4-11.6-5.3-0.7 4.1-2 8-3.8 11.8-0.5 1.3-1.2 2.5-1.9 3.7-2.5 4.4-5.6 8.4-9.2 11.9l-15.8 15.8 8.6 8.6 15.8-15.8c4.5-4.4 8.3-9.4 11.5-14.9 0.7-1.2 1.4-2.4 2-3.6 1.1 0.8 2.2 1.6 3.2 2.5 9.7 8.4 15.2 20.7 15.2 34.7s-5.4 26.3-15.1 34.7c2 3.9 3.6 8 4.8 12.2 14.9-10.7 23.9-27.5 23.9-47z"/>
			<linearGradient id="e" x1="76.584" x2="367.83" y1="-25.41" y2="287.75" gradientTransform="matrix(1 0 0 -1 0 308.16)" gradientUnits="userSpaceOnUse">
			<stop stop-color="#BF0077" offset="0"/>
			<stop stop-color="#E01E42" offset="1"/>
		</linearGradient>
		<polygon class="st4" points="217.8 188.5 217.8 182.7 217.8 165.5 205.7 177.6 201.6 181.7 182.7 200.6 199.9 200.6 201.6 198.9 205.7 194.8 205.7 200.6 205.7 200.6 205.7 200.6 217.8 200.6"/>
			<linearGradient id="d" x1="-29.53" x2="261.72" y1="73.276" y2="386.44" gradientTransform="matrix(1 0 0 -1 0 308.16)" gradientUnits="userSpaceOnUse">
			<stop stop-color="#BF0077" offset="0"/>
			<stop stop-color="#E01E42" offset="1"/>
		</linearGradient>
		<path class="st5" d="m113.4 73.8c0-5.1 0.6-10.1 1.9-15-3.7-1.8-7.6-3-11.7-3.6-1.6 6.1-2.4 12.4-2.4 18.6v38.6h16.2v-0.1l12.1-12.1h-16.2l0.1-26.4z"/>
			<linearGradient id="c" x1="20.208" x2="311.46" y1="27.017" y2="340.18" gradientTransform="matrix(1 0 0 -1 0 308.16)" gradientUnits="userSpaceOnUse">
			<stop stop-color="#BF0077" offset="0"/>
			<stop stop-color="#E01E42" offset="1"/>
		</linearGradient>
		<path class="st6" d="m101.3 200.6v4.1h-26.5c-5.1 0-10.1-0.6-15-2-1.8 3.7-3.1 7.7-3.7 11.7 6.1 1.6 12.4 2.4 18.7 2.4h38.6v-16.2l-12.1-12.1v12.1z"/>
			<linearGradient id="b" x1="53.239" x2="344.49" y1="-3.7045" y2="309.46" gradientTransform="matrix(1 0 0 -1 0 308.16)" gradientUnits="userSpaceOnUse">
			<stop stop-color="#BF0077" offset="0"/>
			<stop stop-color="#E01E42" offset="1"/>
		</linearGradient>
		<polygon class="st7" points="217.8 157.4 217.8 151.6 221.9 155.7 221.9 155.6 230.4 147 205.7 122.3 205.7 139.4 205.7 145.3 205.7 171.9 217.8 159.7"/>
			<linearGradient id="a" x1="97.105" x2="388.36" y1="-44.501" y2="268.66" gradientTransform="matrix(1 0 0 -1 0 308.16)" gradientUnits="userSpaceOnUse">
			<stop stop-color="#BF0077" offset="0"/>
			<stop stop-color="#E01E42" offset="1"/>
		</linearGradient>
		<path class="st8" d="m205.7 243.3c0 5.1-0.6 10.1-2 15 3.7 1.8 7.7 3.1 11.8 3.7 1.6-6.1 2.4-12.4 2.4-18.7v-38.6h-16.2v0.1l-12.1 12.1h16.2l-0.1 26.4z"/>
			<linearGradient id="ac" x1="4.6219" x2="295.87" y1="41.512" y2="354.67" gradientTransform="matrix(1 0 0 -1 0 308.16)" gradientUnits="userSpaceOnUse">
			<stop stop-color="#BF0077" offset="0"/>
			<stop stop-color="#E01E42" offset="1"/>
		</linearGradient>
		<polygon class="st9" points="139.5 96.2 135.4 100.3 123.2 112.4 140.4 112.4 146.2 112.4 172.9 112.4 160.7 100.3 158.3 100.3 152.5 100.3 156.6 96.2 156.7 96.2 156.6 96.2 148.1 87.6"/>
			<linearGradient id="ab" x1="2.8482" x2="294.1" y1="43.165" y2="356.32" gradientTransform="matrix(1 0 0 -1 0 308.16)" gradientUnits="userSpaceOnUse">
			<stop stop-color="#BF0077" offset="0"/>
			<stop stop-color="#E01E42" offset="1"/>
		</linearGradient>
		<path class="st10" d="m178.2 57.5l-15.7 15.8-2.9 2.9-8.6 8.6 8.6 8.6 2.8 2.8 0.1 0.1v-0.1h17l-8.4-8.5-2.9-2.9 2.9-2.9 15.7-15.9c3.6-3.6 7.6-6.7 12-9.2-1.3-3.9-3.3-7.6-5.7-10.9-5.5 3.2-10.5 7.1-14.9 11.6z"/>
			<linearGradient id="aa" x1="64.67" x2="355.92" y1="-14.336" y2="298.82" gradientTransform="matrix(1 0 0 -1 0 308.16)" gradientUnits="userSpaceOnUse">
			<stop stop-color="#BF0077" offset="0"/>
			<stop stop-color="#E01E42" offset="1"/>
		</linearGradient>
		<path class="st11" d="m140.8 259.7l18.7-18.7 8.6-8.6-8.6-8.6-2.9-2.9h-17.2l8.6 8.6 1.6 1.6 1.4 1.3-2.9 2.9-15.8 15.8c-3.6 3.6-7.6 6.7-11.9 9.2 1.3 3.9 3.3 7.6 5.7 10.9 5.3-3.2 10.3-7.1 14.7-11.5z"/>
			<linearGradient id="z" x1="89.756" x2="381.01" y1="-37.662" y2="275.5" gradientTransform="matrix(1 0 0 -1 0 308.16)" gradientUnits="userSpaceOnUse">
			<stop stop-color="#BF0077" offset="0"/>
			<stop stop-color="#E01E42" offset="1"/>
		</linearGradient>
		<path class="st12" d="m230.4 170.1l2.9-2.9 2.9 2.9 15.8 15.8c3.6 3.6 6.7 7.6 9.2 12 3.9-1.3 7.5-3.2 10.8-5.7-3.1-5.4-7-10.4-11.5-14.9l-27.2-27.3-8.6 8.6-1.4 1.3-1.5 1.5v17.1l8.6-8.4z"/>
			<linearGradient id="y" x1="-22.194" x2="269.06" y1="66.46" y2="379.62" gradientTransform="matrix(1 0 0 -1 0 308.16)" gradientUnits="userSpaceOnUse">
			<stop stop-color="#BF0077" offset="0"/>
			<stop stop-color="#E01E42" offset="1"/>
		</linearGradient>
		<path class="st13" d="m88.6 147.1l-2.9 2.9-2.9-2.9-15.8-15.8c-3.6-3.6-6.7-7.6-9.2-11.9-3.9 1.3-7.5 3.3-10.8 5.7 3.2 5.4 7 10.4 11.5 14.8l15.8 15.8 2.2 2.2 0.7 0.7 8.6 8.6 8.6-8.6 2.8-2.9v-17l-8.6 8.4z"/>
			<linearGradient id="x" x1="-9.0252" x2="282.22" y1="54.21" y2="367.37" gradientTransform="matrix(1 0 0 -1 0 308.16)" gradientUnits="userSpaceOnUse">
			<stop stop-color="#BF0077" offset="0"/>
			<stop stop-color="#E01E42" offset="1"/>
		</linearGradient>
		<polygon class="st14" points="119.1 116.5 117.5 118.2 113.4 122.3 113.4 116.5 113.3 116.5 101.3 116.5 101.3 128.6 101.3 134.4 101.3 151.6 136.3 116.5"/>
			<linearGradient id="w" x1="62.95" x2="354.2" y1="-12.736" y2="300.42" gradientTransform="matrix(1 0 0 -1 0 308.16)" gradientUnits="userSpaceOnUse">
			<stop stop-color="#BF0077" offset="0"/>
			<stop stop-color="#E01E42" offset="1"/>
		</linearGradient>
		<polygon class="st15" points="179.6 220.9 183.7 216.8 195.8 204.7 178.6 204.7 172.8 204.7 146.2 204.7 158.4 216.8 160.6 216.8 166.5 216.8 162.4 220.9 162.4 220.9 162.5 220.9 171 229.5"/>
			<linearGradient id="v" x1="-26.46" x2="264.79" y1="70.415" y2="383.57" gradientTransform="matrix(1 0 0 -1 0 308.16)" gradientUnits="userSpaceOnUse">
			<stop stop-color="#BF0077" offset="0"/>
			<stop stop-color="#E01E42" offset="1"/>
		</linearGradient>
		<path class="st16" d="m52.1 213.3c0.7-4.1 1.9-8.1 3.8-11.8 0.5-1.2 1.2-2.4 1.9-3.6 2.6-4.4 5.7-8.4 9.3-12l15.8-15.7-8.6-8.6-15.8 15.8c-4.5 4.4-8.3 9.4-11.5 14.8-0.7 1.2-1.3 2.4-1.9 3.7-1.1-0.8-2.2-1.7-3.3-2.6-9.7-8.4-15.1-20.7-15.1-34.6 0-14.1 5.4-26.4 15.1-34.7-2-3.9-3.6-8-4.8-12.2-15 10.5-23.9 27.5-23.9 47 0 19.7 9 36.6 24 47.1 1.2 0.8 2.4 1.6 3.6 2.3 3.5 1.9 7.3 3.7 11.4 5.1z"/>
			<linearGradient id="u" x1="33.96" x2="325.21" y1="14.223" y2="327.38" gradientTransform="matrix(1 0 0 -1 0 308.16)" gradientUnits="userSpaceOnUse">
			<stop stop-color="#BF0077" offset="0"/>
			<stop stop-color="#E01E42" offset="1"/>
		</linearGradient>
		<path class="st17" d="m202.5 54.9c0.5 1.3 0.9 2.6 1.2 3.9 1.3 4.9 2 9.9 1.9 15v22.4h12.2v-22.4c0-6.3-0.8-12.6-2.4-18.7-0.3-1.3-0.8-2.7-1.2-4 1.4-0.2 2.8-0.4 4.2-0.5 12.7-0.9 25.3 3.9 35.1 13.8s14.8 22.5 13.9 35.2c4.2 1.3 8.2 3.1 12.1 5.2 3.2-18-2.5-36.3-16.3-50.1s-32.1-19.5-50.1-16.3c-1.4 0.2-2.9 0.5-4.3 0.9-4.1 1.1-8.2 2.6-12 4.5 2.4 3.5 4.3 7.2 5.7 11.1z"/>
			<linearGradient id="t" x1="33.544" x2="324.79" y1="14.619" y2="327.78" gradientTransform="matrix(1 0 0 -1 0 308.16)" gradientUnits="userSpaceOnUse">
			<stop stop-color="#BF0077" offset="0"/>
			<stop stop-color="#E01E42" offset="1"/>
		</linearGradient>
		<path class="st18" d="m116.5 262.2c-0.5-1.3-0.9-2.6-1.2-3.9-1.3-4.9-2-9.9-1.9-15v-22.3h-12.1v22.3c0 6.3 0.8 12.6 2.4 18.7 0.3 1.4 0.8 2.7 1.2 4-1.4 0.2-2.8 0.4-4.2 0.5-12.7 0.9-25.3-3.9-35.2-13.8-9.8-9.8-14.8-22.5-13.9-35.2-4.2-1.4-8.2-3.1-12.1-5.3-3.1 18 2.5 36.3 16.3 50.1s32.2 19.5 50.1 16.4c1.5-0.3 2.9-0.6 4.3-1 4.1-1 8.1-2.5 11.9-4.4-2.3-3.5-4.2-7.2-5.6-11.1z"/>
			<linearGradient id="r" x1="115.69" x2="406.94" y1="-61.78" y2="251.38" gradientTransform="matrix(1 0 0 -1 0 308.16)" gradientUnits="userSpaceOnUse">
			<stop stop-color="#BF0077" offset="0"/>
			<stop stop-color="#E01E42" offset="1"/>
		</linearGradient>
		<path class="st19" d="m278.6 207.9c-1-4.1-2.5-8.2-4.4-12-3.4 2.4-7 4.3-10.9 5.7-1.3 0.5-2.6 0.9-4 1.2-4.9 1.3-9.9 2-15 1.9h-22.3v12.1h22.3c6.3 0 12.6-0.8 18.6-2.4 1.4-0.3 2.7-0.7 4-1.2 0.3 1.4 0.4 2.8 0.5 4.2 0.9 12.7-3.9 25.3-13.8 35.2s-22.4 14.6-35.2 13.8c-1.3 4.3-3.1 8.4-5.3 12.2 18 3.2 36.2-2.5 50.1-16.4s19.5-32.1 16.3-50.1l-0.9-4.2z"/>
			<linearGradient id="q" x1="-48.128" x2="243.12" y1="90.573" y2="403.72" gradientTransform="matrix(1 0 0 -1 0 308.16)" gradientUnits="userSpaceOnUse">
			<stop stop-color="#BF0077" offset="0"/>
			<stop stop-color="#E01E42" offset="1"/>
		</linearGradient>
		<path class="st20" d="m40.4 109.3c1.1 4.1 2.6 8.2 4.5 12 3.4-2.4 7-4.3 10.9-5.7 1.3-0.5 2.6-0.9 4-1.3 4.9-1.3 9.9-1.9 15-1.9h22.3v-12.2h-22.3c-6.3 0-12.5 0.8-18.6 2.4-1.4 0.3-2.7 0.8-4.1 1.2-0.3-1.4-0.4-2.8-0.5-4.3-0.9-12.7 4-25.2 13.9-35.2s22.4-14.6 35.1-13.8c1.3-4.3 3.1-8.4 5.4-12.2-18-3-36.3 2.6-50.2 16.5s-19.4 32.1-16.3 50.1c0.3 1.5 0.6 2.9 0.9 4.4z"/>
			<linearGradient id="p" x1="95.222" x2="386.47" y1="-42.747" y2="270.41" gradientTransform="matrix(1 0 0 -1 0 308.16)" gradientUnits="userSpaceOnUse">
			<stop stop-color="#BF0077" offset="0"/>
			<stop stop-color="#E01E42" offset="1"/>
		</linearGradient>
		<path class="st21" d="m202.4 262.2c-1.3-0.6-2.5-1.2-3.7-1.9-4.4-2.5-8.4-5.6-12-9.2l-15.7-15.8-8.6 8.6 15.8 15.8c4.4 4.5 9.4 8.3 14.9 11.5 1.2 0.7 2.4 1.4 3.7 2-0.8 1.1-1.7 2.2-2.6 3.2-8.4 9.7-20.7 15.1-34.6 15.1-14.1 0-26.4-5.4-34.8-15.1-3.9 2-7.9 3.6-12.2 4.8 10.5 15 27.4 23.9 46.9 23.9 19.7 0 36.5-9 47-23.9 0.8-1.2 1.6-2.4 2.3-3.6 2.2-3.7 4.1-7.7 5.4-11.8-4-0.6-8-1.8-11.8-3.6z"/>
			<linearGradient id="o" x1="14.296" x2="305.55" y1="32.519" y2="345.68" gradientTransform="matrix(1 0 0 -1 0 308.16)" gradientUnits="userSpaceOnUse">
			<stop stop-color="#BF0077" offset="0"/>
			<stop stop-color="#E01E42" offset="1"/>
		</linearGradient>
		<polygon class="st22" points="113.4 177.6 113.4 171.9 113.4 145.3 101.3 157.4 101.3 159.7 101.3 165.5 97.2 161.5 97.1 161.4 97.1 161.5 88.6 170 97.1 178.6 101.3 182.7 101.3 182.7 113.4 194.8"/>
			<linearGradient id="n" x1="-27.66" x2="263.6" y1="71.534" y2="384.69" gradientTransform="matrix(1 0 0 -1 0 308.16)" gradientUnits="userSpaceOnUse">
			<stop stop-color="#BF0077" offset="0"/>
			<stop stop-color="#E01E42" offset="1"/>
		</linearGradient>
		<path class="st23" d="m116.6 54.9c1.3 0.6 2.5 1.2 3.7 1.9 4.4 2.5 8.4 5.6 11.9 9.2l15.8 15.8 8.6-8.6-15.7-15.8c-4.4-4.5-9.4-8.3-14.8-11.5-1.2-0.7-2.4-1.4-3.7-2 0.8-1.1 1.7-2.2 2.6-3.3 8.4-9.6 20.7-15.1 34.6-15.1 14.1 0 26.4 5.5 34.7 15.1 3.9-2 8-3.7 12.2-4.8-10.6-15-27.5-23.9-47-23.9-19.8 0-36.6 9-47 23.9-0.8 1.2-1.6 2.4-2.3 3.6-2.2 3.7-4 7.7-5.4 11.8 4.1 0.7 8 2 11.8 3.7z"/>
			<linearGradient id="m" x1="29.27" x2="-14.15" y1="209.46" y2="251.84" gradientTransform="matrix(1 0 0 -1 0 308.16)" gradientUnits="userSpaceOnUse">
			<stop stop-color="#BF0077" offset="0"/>
			<stop stop-color="#F9AD17" offset="1"/>
		</linearGradient>
		<path class="st24" d="m36 105.9l-25.4-31.7c-0.2-0.3-0.5-0.5-0.7-0.7-2-1.6-4.9-1.2-6.4 0.8s-1.2 4.8 0.7 6.4l31.8 25.2z"/>
			<linearGradient id="l" x1="280.36" x2="329.15" y1="96.98" y2="50.51" gradientTransform="matrix(1 0 0 -1 0 308.16)" gradientUnits="userSpaceOnUse">
			<stop stop-color="#BF0077" offset="0"/>
			<stop stop-color="#F9AD17" offset="1"/>
		</linearGradient>
		<path class="st25" d="m315.2 238.1l-31.8-25.3 25.3 31.8c0.2 0.3 0.5 0.5 0.7 0.7 1.9 1.6 4.8 1.4 6.5-0.6 1.6-1.9 1.4-4.8-0.6-6.5 0 0 0-0.1-0.1-0.1z"/>
			<linearGradient id="k" x1="207.65" x2="254.16" y1="268.45" y2="317.86" gradientTransform="matrix(1 0 0 -1 0 308.16)" gradientUnits="userSpaceOnUse">
			<stop stop-color="#BF0077" offset="0"/>
			<stop stop-color="#F9AD17" offset="1"/>
		</linearGradient>
		<path class="st26" d="m244.2 7.5c1.6-1.9 1.4-4.8-0.6-6.4-1.9-1.6-4.8-1.4-6.4 0.6l-0.1 0.1-25.3 31.8 31.8-25.3c0.2-0.3 0.4-0.5 0.6-0.8z"/>
			<linearGradient id="j" x1="29.849" x2="-8.6914" y1="95.526" y2="54.976" gradientTransform="matrix(1 0 0 -1 0 308.16)" gradientUnits="userSpaceOnUse">
			<stop stop-color="#BF0077" offset="0"/>
			<stop stop-color="#F9AD17" offset="1"/>
		</linearGradient>
		<path class="st27" d="m1 236.3c-1.6 2-1.3 4.9 0.7 6.4 2 1.6 4.9 1.3 6.4-0.7l25.3-31.8-31.7 25.4-0.7 0.7z"/>
			<linearGradient id="i" x1="30.559" x2="321.81" y1="17.386" y2="330.55" gradientTransform="matrix(1 0 0 -1 0 308.16)" gradientUnits="userSpaceOnUse">
			<stop stop-color="#BF0077" offset="0"/>
			<stop stop-color="#E01E42" offset="1"/>
		</linearGradient>
		<path class="st28" d="m155.6 135.2h-14.3v46.6h14.3c13.1 0 22.1-9 22.1-23.3s-9-23.3-22.1-23.3z"/>
</svg>
